<svg width="30" height="30" viewBox="0 0 30 30" fill="none" xmlns="http://www.w3.org/2000/svg">
<path fill-rule="evenodd" clip-rule="evenodd" d="M15 1C14.2125 1 13.4872 1.19573 12.6933 1.52408C11.9266 1.84115 11.0362 2.30846 9.92731 2.89036L7.23474 4.30336C5.87385 5.01751 4.78477 5.58902 3.94387 6.15058C3.0727 6.73237 2.40172 7.34494 1.91309 8.17475C1.4261 9.00176 1.20702 9.89728 1.10196 10.9637C0.999987 11.9989 0.999987 13.2719 1 14.8732V15.1268C0.999987 16.7279 0.999987 18.0011 1.10196 19.0363C1.20702 20.1028 1.4261 20.9983 1.91309 21.8252C2.40172 22.6551 3.0727 23.2677 3.94387 23.8494C4.78477 24.411 5.87384 24.9825 7.23471 25.6967L9.92719 27.1095C11.0361 27.6916 11.9266 28.1588 12.6933 28.4759C13.4872 28.8043 14.2125 29 15 29C15.7875 29 16.5128 28.8043 17.3067 28.4759C18.0734 28.1588 18.9639 27.6916 20.0727 27.1097L22.7652 25.6967C24.1262 24.9825 25.2152 24.411 26.0561 23.8494C26.9273 23.2677 27.5983 22.6551 28.0869 21.8252C28.5739 20.9983 28.7929 20.1028 28.898 19.0363C29 18.0011 29 16.7281 29 15.127V14.873C29 13.2719 29 11.9989 28.898 10.9637C28.7929 9.89728 28.5739 9.00176 28.0869 8.17475C27.5983 7.34494 26.9273 6.73237 26.0561 6.15058C25.2152 5.58902 24.1262 5.01751 22.7652 4.30335L20.0727 2.89038C18.9639 2.30847 18.0734 1.84116 17.3067 1.52408C16.5128 1.19573 15.7875 1 15 1ZM10.7945 4.64141C11.9532 4.03334 12.7652 3.6083 13.4398 3.32929C14.0964 3.05773 14.5579 2.95349 15 2.95349C15.4421 2.95349 15.9036 3.05773 16.5602 3.32929C17.2348 3.6083 18.0468 4.03334 19.2055 4.64141L21.8101 6.00826C23.2293 6.753 24.2263 7.27763 24.9713 7.77511C25.3388 8.02055 25.6275 8.24846 25.8607 8.47762L21.5231 10.6464L10.4535 4.82036L10.7945 4.64141ZM8.4163 5.88944L8.18988 6.00826C6.77075 6.75298 5.77371 7.27763 5.02877 7.77511C4.66124 8.02055 4.37245 8.24846 4.13931 8.47762L15 13.908L19.3722 11.7219L8.68462 6.0969C8.58079 6.04225 8.49086 5.97154 8.4163 5.88944ZM3.19791 10.191C3.13214 10.4695 3.08243 10.7858 3.04603 11.1552C2.95458 12.0836 2.95349 13.2606 2.95349 14.9238V15.0762C2.95349 16.7394 2.95458 17.9164 3.04603 18.8447C3.13548 19.7527 3.3054 20.3398 3.59641 20.834C3.88578 21.3254 4.30435 21.7411 5.02877 22.2249C5.77371 22.7224 6.77075 23.247 8.18988 23.9918L10.7945 25.3586C11.9532 25.9666 12.7652 26.3917 13.4398 26.6707C13.6529 26.7588 13.8454 26.8293 14.0233 26.8844V15.6036L3.19791 10.191ZM15.9767 26.8844C16.1546 26.8293 16.3471 26.7588 16.5602 26.6707C17.2348 26.3917 18.0468 25.9666 19.2055 25.3586L21.8101 23.9918C23.2293 23.247 24.2263 22.7224 24.9713 22.2249C25.6956 21.7411 26.1142 21.3254 26.4036 20.834C26.6946 20.3398 26.8646 19.7527 26.9539 18.8447C27.0455 17.9164 27.0465 16.7394 27.0465 15.0762V14.9238C27.0465 13.2606 27.0455 12.0836 26.9539 11.1552C26.9176 10.7858 26.8678 10.4695 26.8021 10.191L22.4884 12.3478V16.3023C22.4884 16.8417 22.0511 17.2791 21.5116 17.2791C20.9722 17.2791 20.5349 16.8417 20.5349 16.3023V13.3246L15.9767 15.6036V26.8844Z" fill="rgb(149, 7, 65)" stroke="rgb(149, 7, 65)"/>
</svg>
