<svg width="18" height="28" viewBox="0 0 18 28" fill="none" xmlns="http://www.w3.org/2000/svg">
<path d="M4.4999 8.75C4.4999 6.81953 6.11428 5.25 8.0999 5.25H9.8999C11.8855 5.25 13.4999 6.81953 13.4999 8.75V8.94688C13.4999 10.1391 12.8755 11.2492 11.8462 11.8891L9.4724 13.3711C8.0549 14.257 7.1999 15.7828 7.1999 17.418V17.5C7.1999 18.468 8.00428 19.25 8.9999 19.25C9.99553 19.25 10.7999 18.468 10.7999 17.5V17.4234C10.7999 16.975 11.0362 16.5594 11.4187 16.3187L13.7924 14.8367C15.8512 13.5461 17.0999 11.3313 17.0999 8.94688V8.75C17.0999 4.88359 13.8768 1.75 9.8999 1.75H8.0999C4.12303 1.75 0.899902 4.88359 0.899902 8.75C0.899902 9.71797 1.70428 10.5 2.6999 10.5C3.69553 10.5 4.4999 9.71797 4.4999 8.75ZM8.9999 26.25C9.59664 26.25 10.1689 26.0195 10.5909 25.6093C11.0128 25.1991 11.2499 24.6427 11.2499 24.0625C11.2499 23.4823 11.0128 22.9259 10.5909 22.5157C10.1689 22.1055 9.59664 21.875 8.9999 21.875C8.40317 21.875 7.83087 22.1055 7.40891 22.5157C6.98696 22.9259 6.7499 23.4823 6.7499 24.0625C6.7499 24.6427 6.98696 25.1991 7.40891 25.6093C7.83087 26.0195 8.40317 26.25 8.9999 26.25Z" fill="rgb(149, 7, 65)"/>
</svg>
