<svg width="30" height="23" viewBox="0 0 30 23" fill="none" xmlns="http://www.w3.org/2000/svg">
<path d="M21.8182 0C26.3369 0 30 3.86154 30 8.625V14.375C30 19.1384 26.3369 23 21.8182 23H8.18182C3.66312 23 0 19.1384 0 14.375V8.625C0 3.86154 3.66312 0 8.18182 0H21.8182ZM21.8182 2.875H8.18182C5.26064 2.875 2.8758 5.29571 2.73395 8.33802L2.72727 8.625V14.375C2.72727 17.4544 5.0236 19.9685 7.90958 20.118L8.18182 20.125H21.8182C24.7394 20.125 27.1242 17.7043 27.266 14.6619L27.2727 14.375V8.625C27.2727 5.54559 24.9764 3.03157 22.0904 2.88204L21.8182 2.875ZM12.2727 7.1875V10.0625H15V12.9375H12.2714L12.2727 15.8125H9.54545L9.54409 12.9375H6.81818V10.0625H9.54545V7.1875H12.2727ZM23.1818 12.9375V15.8125H20.4545V12.9375H23.1818ZM20.4545 7.1875V10.0625H17.7273V7.1875H20.4545Z" fill="rgb(149, 7, 65)"/>
</svg>
