<svg width="34" height="30" viewBox="0 0 34 30" fill="none" xmlns="http://www.w3.org/2000/svg">
<path d="M28.4545 30H5.54545C4.64172 30 3.90909 29.3164 3.90909 28.4732V15.7317C3.90909 15.1794 3.46138 14.7317 2.90909 14.7317H1.72482C0.793857 14.7317 0.367995 13.5713 1.07795 12.9691L15.8992 0.39706C16.5233 -0.132353 17.4767 -0.132353 18.1008 0.39706L32.9221 12.9691C33.632 13.5713 33.2061 14.7317 32.2752 14.7317H31.0909C30.5386 14.7317 30.0909 15.1794 30.0909 15.7317V28.4732C30.0909 29.3164 29.3583 30 28.4545 30ZM7.18182 25.9463C7.18182 26.4986 7.62953 26.9463 8.18182 26.9463H25.8182C26.3705 26.9463 26.8182 26.4986 26.8182 25.9463V12.3815C26.8182 12.0878 26.689 11.8089 26.4651 11.6189L17.6469 4.13898C17.2737 3.82244 16.7263 3.82244 16.3531 4.13898L7.53495 11.6189C7.31095 11.8089 7.18182 12.0878 7.18182 12.3815V25.9463Z" fill="rgb(149, 7, 65)"/>
</svg>
