<svg width="25" height="25" viewBox="0 0 25 25" fill="none" xmlns="http://www.w3.org/2000/svg">
<g clip-path="url(#clip0_145_227)">
<path d="M21.684 0.551734C21.9748 0.0292734 22.5738 -0.156273 23.0599 0.136695C23.546 0.429664 23.7457 1.08884 23.52 1.65037L17.5694 16.5332C17.6649 16.6455 17.7561 16.7627 17.8429 16.8799L22.0616 14.209C22.5174 13.9209 23.0859 14.0576 23.4028 14.5215C23.7196 14.9853 23.6762 15.6445 23.3073 16.0595L19.5312 20.3076H16.4279C15.855 18.4863 14.3142 17.1826 12.5 17.1826C10.6858 17.1826 9.14062 18.4863 8.57205 20.3076H5.11285L1.83594 17.7588C1.41493 17.4316 1.26736 16.8017 1.49306 16.2793C1.71875 15.7568 2.24826 15.5029 2.73872 15.6738L6.95747 17.1582C7.08767 16.9678 7.22222 16.7822 7.36545 16.6064L4.66146 11.5381C4.3967 11.0449 4.49219 10.4101 4.88281 10.039C5.27344 9.66795 5.84635 9.67283 6.23264 10.0439L10.6771 14.3359C10.7422 14.3164 10.8073 14.2969 10.8724 14.2822L11.4627 7.31443C11.5148 6.71384 11.9618 6.25486 12.5 6.25486C13.0382 6.25486 13.4852 6.71384 13.5373 7.31443L14.1233 14.2431L21.684 0.551734ZM2.77778 21.875H22.2222H23.6111C24.3793 21.875 25 22.5732 25 23.4375C25 24.3017 24.3793 25 23.6111 25H1.38889C0.62066 25 0 24.3017 0 23.4375C0 22.5732 0.62066 21.875 1.38889 21.875H2.77778ZM12.5 -2.3446e-05C13.0773 -2.3446e-05 13.5417 0.522438 13.5417 1.17185V3.5156C13.5417 4.16502 13.0773 4.68748 12.5 4.68748C11.9227 4.68748 11.4583 4.16502 11.4583 3.5156V1.17185C11.4583 0.522438 11.9227 -2.3446e-05 12.5 -2.3446e-05Z" fill="#95ABAC"/>
</g>
<defs>
<clipPath id="clip0_145_227">
<rect width="25" height="25" fill="white"/>
</clipPath>
</defs>
</svg>
