<svg width="27" height="24" viewBox="0 0 27 24" fill="none" xmlns="http://www.w3.org/2000/svg">
<path fill-rule="evenodd" clip-rule="evenodd" d="M2.5625 1C3.42676 1 4.125 1.70223 4.125 2.57143V19.0714C4.125 19.5036 4.47656 19.8571 4.90625 19.8571H24.4375C25.3018 19.8571 26 20.5594 26 21.4286C26 22.2978 25.3018 23 24.4375 23H4.90625C2.74805 23 1 21.242 1 19.0714V2.57143C1 1.70223 1.69824 1 2.5625 1ZM7.45785 5.45081C6.84758 6.05199 6.84758 7.0283 7.45785 7.62948L7.45297 7.63429L13.7022 13.7904C14.3124 14.3915 15.3035 14.3915 15.9138 13.7904L18.7162 11.0297L23.0808 15.3246C23.6911 15.9257 24.6822 15.9257 25.2924 15.3246C25.9027 14.7234 25.9027 13.7471 25.2924 13.1459L19.8244 7.75934C19.2141 7.15816 18.2231 7.15816 17.6128 7.75934L14.8104 10.5199L9.66948 5.45081C9.05921 4.84964 8.06812 4.84964 7.45785 5.45081Z" fill="rgb(111, 34, 50)"/>
<path d="M7.45785 7.62948L7.80863 7.98579L8.17044 7.62959L7.80874 7.27328L7.45785 7.62948ZM7.45785 5.45081L7.10696 5.09462L7.10696 5.09462L7.45785 5.45081ZM7.45297 7.63429L7.10219 7.27798L6.74038 7.63418L7.10208 7.99049L7.45297 7.63429ZM13.7022 13.7904L13.3513 14.1465L13.3513 14.1465L13.7022 13.7904ZM15.9138 13.7904L16.2647 14.1465L16.2647 14.1465L15.9138 13.7904ZM18.7162 11.0297L19.0668 10.6733L18.716 10.3281L18.3653 10.6735L18.7162 11.0297ZM23.0808 15.3246L23.4317 14.9684L23.4315 14.9682L23.0808 15.3246ZM25.2924 15.3246L24.9416 14.9684L24.9416 14.9684L25.2924 15.3246ZM25.2924 13.1459L25.6433 12.7897L25.6433 12.7897L25.2924 13.1459ZM19.8244 7.75934L19.4735 8.11553L19.4735 8.11553L19.8244 7.75934ZM17.6128 7.75934L17.9637 8.11553L17.9637 8.11553L17.6128 7.75934ZM14.8104 10.5199L14.4594 10.876L14.8102 11.222L15.1613 10.8761L14.8104 10.5199ZM9.66948 5.45081L10.0205 5.09478L10.0204 5.09462L9.66948 5.45081ZM4.625 2.57143C4.625 1.42878 3.70558 0.5 2.5625 0.5V1.5C3.14793 1.5 3.625 1.97568 3.625 2.57143H4.625ZM4.625 19.0714V2.57143H3.625V19.0714H4.625ZM4.90625 19.3571C4.75539 19.3571 4.625 19.2301 4.625 19.0714H3.625C3.625 19.777 4.19774 20.3571 4.90625 20.3571V19.3571ZM24.4375 19.3571H4.90625V20.3571H24.4375V19.3571ZM26.5 21.4286C26.5 20.2859 25.5806 19.3571 24.4375 19.3571V20.3571C25.0229 20.3571 25.5 20.8328 25.5 21.4286H26.5ZM24.4375 23.5C25.5806 23.5 26.5 22.5712 26.5 21.4286H25.5C25.5 22.0243 25.0229 22.5 24.4375 22.5V23.5ZM4.90625 23.5H24.4375V22.5H4.90625V23.5ZM0.5 19.0714C0.5 21.5154 2.46922 23.5 4.90625 23.5V22.5C3.02687 22.5 1.5 20.9685 1.5 19.0714H0.5ZM0.5 2.57143V19.0714H1.5V2.57143H0.5ZM2.5625 0.5C1.41942 0.5 0.5 1.42878 0.5 2.57143H1.5C1.5 1.97568 1.97707 1.5 2.5625 1.5V0.5ZM7.80874 7.27328C7.39728 6.86796 7.39728 6.21234 7.80874 5.80701L7.10696 5.09462C6.29788 5.89165 6.29788 7.18865 7.10696 7.98568L7.80874 7.27328ZM7.80375 7.9906L7.80863 7.98579L7.10708 7.27317L7.10219 7.27798L7.80375 7.9906ZM14.053 13.4342L7.80386 7.27809L7.10208 7.99049L13.3513 14.1465L14.053 13.4342ZM15.5629 13.4342C15.1473 13.8436 14.4687 13.8436 14.053 13.4342L13.3513 14.1465C14.1562 14.9395 15.4598 14.9395 16.2647 14.1465L15.5629 13.4342ZM18.3653 10.6735L15.5629 13.4342L16.2647 14.1465L19.067 11.3859L18.3653 10.6735ZM23.4315 14.9682L19.0668 10.6733L18.3655 11.3861L22.7301 15.681L23.4315 14.9682ZM24.9416 14.9684C24.5259 15.3778 23.8473 15.3778 23.4317 14.9684L22.7299 15.6808C23.5348 16.4737 24.8384 16.4737 25.6433 15.6808L24.9416 14.9684ZM24.9416 13.5021C25.353 13.9074 25.353 14.563 24.9416 14.9684L25.6433 15.6808C26.4524 14.8837 26.4524 13.5867 25.6433 12.7897L24.9416 13.5021ZM19.4735 8.11553L24.9416 13.5021L25.6433 12.7897L20.1753 7.40314L19.4735 8.11553ZM17.9637 8.11553C18.3793 7.70609 19.0579 7.70609 19.4735 8.11553L20.1753 7.40314C19.3704 6.61022 18.0668 6.61022 17.2619 7.40314L17.9637 8.11553ZM15.1613 10.8761L17.9637 8.11553L17.2619 7.40314L14.4595 10.1637L15.1613 10.8761ZM9.31842 5.80684L14.4594 10.876L15.1615 10.1639L10.0205 5.09478L9.31842 5.80684ZM7.80874 5.80701C8.22438 5.39757 8.90295 5.39757 9.31859 5.80701L10.0204 5.09462C9.21546 4.3017 7.91187 4.3017 7.10696 5.09462L7.80874 5.80701Z" fill="rgb(111, 34, 50)"/>
</svg>
