<svg width="27" height="24" viewBox="0 0 27 24" fill="none" xmlns="http://www.w3.org/2000/svg">
<path fill-rule="evenodd" clip-rule="evenodd" d="M2.5625 1C3.42676 1 4.125 1.70223 4.125 2.57143V19.0714C4.125 19.5036 4.47656 19.8571 4.90625 19.8571H24.4375C25.3018 19.8571 26 20.5594 26 21.4286C26 22.2978 25.3018 23 24.4375 23H4.90625C2.74805 23 1 21.242 1 19.0714V2.57143C1 1.70223 1.69824 1 2.5625 1ZM24.8667 5.4281C25.4628 5.99898 25.4628 6.9261 24.8667 7.49699L24.8715 7.50156L18.7677 13.3474C18.1716 13.9183 17.2035 13.9183 16.6075 13.3474L13.8703 10.7259L9.60711 14.8043C9.01103 15.3752 8.04299 15.3752 7.44692 14.8043C6.85084 14.2334 6.85084 13.3063 7.44692 12.7354L12.7878 7.6203C13.3839 7.04941 14.3519 7.04941 14.948 7.6203L17.6852 10.2418L22.7066 5.4281C23.3026 4.85721 24.2707 4.85721 24.8667 5.4281Z" fill="rgb(111, 34, 50)"/>
<path d="M24.8667 7.49699L24.5209 7.13589L24.1438 7.49707L24.521 7.85817L24.8667 7.49699ZM24.8667 5.4281L24.5209 5.7892L24.5209 5.7892L24.8667 5.4281ZM24.8715 7.50156L25.2174 7.86266L25.5945 7.50148L25.2173 7.14038L24.8715 7.50156ZM18.7677 13.3474L18.4218 12.9863L18.4218 12.9863L18.7677 13.3474ZM16.6075 13.3474L16.9533 12.9863L16.9533 12.9863L16.6075 13.3474ZM13.8703 10.7259L14.2161 10.3648L13.8705 10.0338L13.5246 10.3646L13.8703 10.7259ZM9.60711 14.8043L9.26147 14.443L9.26127 14.4432L9.60711 14.8043ZM7.44692 12.7354L7.10108 12.3743L7.10108 12.3743L7.44692 12.7354ZM12.7878 7.6203L13.1336 7.9814L13.1336 7.9814L12.7878 7.6203ZM14.948 7.6203L14.6021 7.9814L14.6021 7.9814L14.948 7.6203ZM17.6852 10.2418L17.3393 10.6029L17.6853 10.9343L18.0312 10.6027L17.6852 10.2418ZM22.7066 5.4281L22.3607 5.067L22.3605 5.06716L22.7066 5.4281ZM4.625 2.57143C4.625 1.42878 3.70558 0.5 2.5625 0.5V1.5C3.14793 1.5 3.625 1.97568 3.625 2.57143H4.625ZM4.625 19.0714V2.57143H3.625V19.0714H4.625ZM4.90625 19.3571C4.75539 19.3571 4.625 19.2301 4.625 19.0714H3.625C3.625 19.777 4.19774 20.3571 4.90625 20.3571V19.3571ZM24.4375 19.3571H4.90625V20.3571H24.4375V19.3571ZM26.5 21.4286C26.5 20.2859 25.5806 19.3571 24.4375 19.3571V20.3571C25.0229 20.3571 25.5 20.8328 25.5 21.4286H26.5ZM24.4375 23.5C25.5806 23.5 26.5 22.5712 26.5 21.4286H25.5C25.5 22.0243 25.0229 22.5 24.4375 22.5V23.5ZM4.90625 23.5H24.4375V22.5H4.90625V23.5ZM0.5 19.0714C0.5 21.5154 2.46922 23.5 4.90625 23.5V22.5C3.02687 22.5 1.5 20.9685 1.5 19.0714H0.5ZM0.5 2.57143V19.0714H1.5V2.57143H0.5ZM2.5625 0.5C1.41942 0.5 0.5 1.42878 0.5 2.57143H1.5C1.5 1.97568 1.97707 1.5 2.5625 1.5V0.5ZM25.2126 7.85809C26.0142 7.09035 26.0142 5.83474 25.2126 5.067L24.5209 5.7892C24.9114 6.16323 24.9114 6.76186 24.5209 7.13589L25.2126 7.85809ZM25.2173 7.14038L25.2125 7.13581L24.521 7.85817L24.5258 7.86273L25.2173 7.14038ZM19.1135 13.7085L25.2174 7.86266L24.5257 7.14045L18.4218 12.9863L19.1135 13.7085ZM16.2616 13.7085C17.0511 14.4646 18.3241 14.4646 19.1135 13.7085L18.4218 12.9863C18.0191 13.372 17.356 13.372 16.9533 12.9863L16.2616 13.7085ZM13.5244 11.087L16.2616 13.7085L16.9533 12.9863L14.2161 10.3648L13.5244 11.087ZM9.95275 15.1656L14.2159 11.0872L13.5246 10.3646L9.26147 14.443L9.95275 15.1656ZM7.10108 15.1654C7.89053 15.9215 9.1635 15.9215 9.95295 15.1654L9.26127 14.4432C8.85856 14.8289 8.19546 14.8289 7.79275 14.4432L7.10108 15.1654ZM7.10108 12.3743C6.29945 13.1421 6.29945 14.3977 7.10108 15.1654L7.79275 14.4432C7.40222 14.0692 7.40222 13.4706 7.79275 13.0965L7.10108 12.3743ZM12.442 7.2592L7.10108 12.3743L7.79275 13.0965L13.1336 7.9814L12.442 7.2592ZM15.2938 7.2592C14.5044 6.50311 13.2314 6.50311 12.442 7.2592L13.1336 7.9814C13.5363 7.59571 14.1994 7.59571 14.6021 7.9814L15.2938 7.2592ZM18.031 9.8807L15.2938 7.2592L14.6021 7.9814L17.3393 10.6029L18.031 9.8807ZM22.3605 5.06716L17.3392 9.88087L18.0312 10.6027L23.0526 5.78904L22.3605 5.06716ZM25.2126 5.067C24.4231 4.31091 23.1502 4.31091 22.3607 5.067L23.0524 5.7892C23.4551 5.40351 24.1182 5.40351 24.5209 5.7892L25.2126 5.067Z" fill="rgb(111, 34, 50)"/>
</svg>
