<svg width="21" height="21" viewBox="0 0 21 21" fill="none" xmlns="http://www.w3.org/2000/svg">
<path d="M3.67206 16.8C4.09588 16.8 4.4609 16.5232 4.68788 16.1653C5.24639 15.2846 6.22992 14.7 7.35 14.7C8.47005 14.7 9.45362 15.2846 10.0121 16.1653C10.2391 16.5232 10.6041 16.8 11.028 16.8H20C20.5523 16.8 21 17.2477 21 17.8V17.9C21 18.4523 20.5523 18.9 20 18.9H11.028C10.6041 18.9 10.2391 19.1768 10.0121 19.5347C9.45362 20.4154 8.47005 21 7.35 21C6.22992 21 5.24639 20.4154 4.68788 19.5347C4.4609 19.1768 4.09588 18.9 3.67206 18.9H1C0.447716 18.9 0 18.4523 0 17.9V17.8C0 17.2477 0.447715 16.8 1 16.8H3.67206ZM9.97204 9.45C10.3959 9.45 10.7609 9.17323 10.9879 8.81531C11.5464 7.93459 12.5299 7.35 13.65 7.35C14.77 7.35 15.7536 7.93459 16.3121 8.81531C16.5391 9.17323 16.9041 9.45 17.328 9.45H20C20.5523 9.45 21 9.89772 21 10.45V10.55C21 11.1023 20.5523 11.55 20 11.55H17.328C16.9041 11.55 16.5391 11.8268 16.3121 12.1847C15.7536 13.0654 14.7701 13.65 13.65 13.65C12.5299 13.65 11.5464 13.0654 10.9879 12.1847C10.7609 11.8268 10.3959 11.55 9.97204 11.55H1C0.447716 11.55 0 11.1023 0 10.55V10.45C0 9.89772 0.447715 9.45 1 9.45H9.97204ZM3.67207 2.1C4.09588 2.1 4.4609 1.82324 4.68788 1.46532C5.24639 0.584601 6.22993 0 7.35 0C8.47005 0 9.45362 0.584594 10.0121 1.46531C10.2391 1.82323 10.6041 2.1 11.028 2.1H20C20.5523 2.1 21 2.54772 21 3.1V3.2C21 3.75228 20.5523 4.2 20 4.2H11.028C10.6041 4.2 10.2391 4.47677 10.0121 4.83469C9.45362 5.71541 8.47005 6.3 7.35 6.3C6.22993 6.3 5.24639 5.7154 4.68788 4.83468C4.4609 4.47676 4.09588 4.2 3.67207 4.2H1C0.447716 4.2 0 3.75228 0 3.2V3.1C0 2.54772 0.447715 2.1 1 2.1H3.67207Z" fill="#CAE9EA"/>
</svg>
