<svg width="22" height="19" viewBox="0 0 22 19" fill="none" xmlns="http://www.w3.org/2000/svg">
<path d="M6.6 2.375C2.95625 2.375 0 5.56641 0 9.5C0 13.4336 2.95625 16.625 6.6 16.625H15.4C19.0438 16.625 22 13.4336 22 9.5C22 5.56641 19.0438 2.375 15.4 2.375H6.6ZM17.05 6.23438C17.4147 6.23438 17.7644 6.39076 18.0223 6.66914C18.2801 6.94751 18.425 7.32507 18.425 7.71875C18.425 8.11243 18.2801 8.48999 18.0223 8.76836C17.7644 9.04674 17.4147 9.20312 17.05 9.20312C16.6853 9.20312 16.3356 9.04674 16.0777 8.76836C15.8199 8.48999 15.675 8.11243 15.675 7.71875C15.675 7.32507 15.8199 6.94751 16.0777 6.66914C16.3356 6.39076 16.6853 6.23438 17.05 6.23438ZM13.475 11.2812C13.475 10.8876 13.6199 10.51 13.8777 10.2316C14.1356 9.95326 14.4853 9.79688 14.85 9.79688C15.2147 9.79688 15.5644 9.95326 15.8223 10.2316C16.0801 10.51 16.225 10.8876 16.225 11.2812C16.225 11.6749 16.0801 12.0525 15.8223 12.3309C15.5644 12.6092 15.2147 12.7656 14.85 12.7656C14.4853 12.7656 14.1356 12.6092 13.8777 12.3309C13.6199 12.0525 13.475 11.6749 13.475 11.2812ZM5.775 7.42188C5.775 6.92832 6.14281 6.53125 6.6 6.53125C7.05719 6.53125 7.425 6.92832 7.425 7.42188V8.60938H8.525C8.98219 8.60938 9.35 9.00645 9.35 9.5C9.35 9.99355 8.98219 10.3906 8.525 10.3906H7.425V11.5781C7.425 12.0717 7.05719 12.4688 6.6 12.4688C6.14281 12.4688 5.775 12.0717 5.775 11.5781V10.3906H4.675C4.21781 10.3906 3.85 9.99355 3.85 9.5C3.85 9.00645 4.21781 8.60938 4.675 8.60938H5.775V7.42188Z" fill="#95ABAC"/>
</svg>
