<svg width="25" height="20" viewBox="0 0 25 20" fill="none" xmlns="http://www.w3.org/2000/svg">
<path d="M6.69141 3.75H8.75V7.5H4.34766L5.53516 4.53516C5.72266 4.0625 6.17969 3.75 6.69141 3.75ZM10.625 7.5V3.75H13.7969C14.1758 3.75 14.5352 3.92188 14.7734 4.21875L17.3984 7.5H10.625ZM20.6328 7.53906L16.7266 2.65625C16.0156 1.76562 14.9375 1.25 13.7969 1.25H6.69141C5.15625 1.25 3.77734 2.18359 3.21094 3.60547L1.58594 7.67188C0.65625 8.03906 0 8.94141 0 10V14.375C0 15.0664 0.558594 15.625 1.25 15.625H2.55078C2.84766 17.3984 4.39062 18.75 6.25 18.75C8.10938 18.75 9.65234 17.3984 9.94922 15.625H15.0508C15.3477 17.3984 16.8906 18.75 18.75 18.75C20.6094 18.75 22.1523 17.3984 22.4492 15.625H23.75C24.4414 15.625 25 15.0664 25 14.375V12.5C25 9.95312 23.0938 7.85156 20.6328 7.53906ZM16.9805 14.375C17.06 14.1397 17.1856 13.9225 17.3498 13.7361C17.514 13.5498 17.7136 13.3979 17.937 13.2893C18.1604 13.1807 18.4032 13.1176 18.6512 13.1036C18.8992 13.0896 19.1475 13.1251 19.3817 13.2079C19.6159 13.2907 19.8313 13.4192 20.0154 13.586C20.1995 13.7527 20.3487 13.9544 20.4542 14.1793C20.5597 14.4042 20.6194 14.6478 20.63 14.896C20.6405 15.1442 20.6017 15.392 20.5156 15.625C20.4361 15.8603 20.3105 16.0775 20.1463 16.2639C19.9821 16.4502 19.7825 16.6021 19.5591 16.7107C19.3357 16.8193 19.0929 16.8824 18.8449 16.8964C18.5969 16.9104 18.3486 16.8749 18.1144 16.7921C17.8802 16.7093 17.6648 16.5808 17.4807 16.414C17.2966 16.2473 17.1474 16.0456 17.0419 15.8207C16.9364 15.5958 16.8767 15.3522 16.8661 15.104C16.8556 14.8558 16.8944 14.608 16.9805 14.375ZM6.25 13.125C6.74728 13.125 7.22419 13.3225 7.57583 13.6742C7.92746 14.0258 8.125 14.5027 8.125 15C8.125 15.4973 7.92746 15.9742 7.57583 16.3258C7.22419 16.6775 6.74728 16.875 6.25 16.875C5.75272 16.875 5.27581 16.6775 4.92417 16.3258C4.57254 15.9742 4.375 15.4973 4.375 15C4.375 14.5027 4.57254 14.0258 4.92417 13.6742C5.27581 13.3225 5.75272 13.125 6.25 13.125Z" fill="#95ABAC"/>
</svg>
