<svg width="25" height="25" viewBox="0 0 25 25" fill="none" xmlns="http://www.w3.org/2000/svg">
<g clip-path="url(#clip0_145_240)">
<path d="M12.5 0C12.7246 0 12.9492 0.0488281 13.1543 0.141602L22.3487 4.04297C23.4229 4.49707 24.2237 5.55664 24.2188 6.83594C24.1944 11.6797 22.2022 20.542 13.7891 24.5703C12.9737 24.9609 12.0264 24.9609 11.211 24.5703C2.79787 20.542 0.805686 11.6797 0.781272 6.83594C0.776389 5.55664 1.57717 4.49707 2.65139 4.04297L11.8506 0.141602C12.0508 0.0488281 12.2754 0 12.5 0ZM12.5 3.26172V21.7188C19.2383 18.457 21.0498 11.2354 21.0938 6.9043L12.5 3.26172Z" fill="#95ABAC"/>
</g>
<defs>
<clipPath id="clip0_145_240">
<rect width="25" height="25" fill="white"/>
</clipPath>
</defs>
</svg>
