<svg width="25" height="25" viewBox="0 0 25 25" fill="none" xmlns="http://www.w3.org/2000/svg">
<path d="M12.4997 2.08337C18.2526 2.08337 22.9163 6.74707 22.9163 12.5C22.9163 18.253 18.2526 22.9167 12.4997 22.9167C6.74671 22.9167 2.08301 18.253 2.08301 12.5C2.08301 6.74707 6.74671 2.08337 12.4997 2.08337ZM8.49094 14.5253C8.31721 14.0009 7.88514 13.5418 7.33275 13.542L5.36323 13.5425C4.7619 13.5426 4.29227 14.0725 4.44726 14.6535C5.21335 17.5254 7.47502 19.7869 10.3471 20.5527C10.9281 20.7076 11.458 20.2378 11.458 19.6365V17.6667C11.458 17.1144 10.9989 16.6825 10.4747 16.5089C9.53982 16.1992 8.80066 15.4601 8.49094 14.5253ZM20.5521 14.6535C20.7071 14.0725 20.2375 13.5426 19.6361 13.5425L17.6666 13.542C17.1142 13.5418 16.6821 14.0009 16.5084 14.5253C16.1987 15.46 15.4597 16.1991 14.5249 16.5088C14.0006 16.6825 13.5415 17.1146 13.5416 17.667L13.5421 19.6365C13.5422 20.2378 14.0722 20.7075 14.6532 20.5525C17.5248 19.7865 19.7861 17.5252 20.5521 14.6535ZM12.4997 4.16671C8.64163 4.16671 5.39592 6.78846 4.447 10.3475C4.29207 10.9286 4.76187 11.4584 5.36325 11.4584H7.33301C7.88529 11.4584 8.32504 10.9221 8.77718 10.605C8.94633 10.4863 9.15237 10.4167 9.37467 10.4167H15.6247C15.847 10.4167 16.053 10.4863 16.2222 10.605C16.6743 10.9221 17.1141 11.4584 17.6663 11.4584H19.6361C20.2375 11.4584 20.7073 10.9286 20.5523 10.3475C19.6034 6.78846 16.3577 4.16671 12.4997 4.16671Z" fill="#95ABAC"/>
</svg>
