<svg width="20" height="25" viewBox="0 0 20 25" fill="none" xmlns="http://www.w3.org/2000/svg">
<g clip-path="url(#clip0_145_247)">
<path d="M4.2853 2.34375L3.69155 2.99316C3.15583 3.5791 2.85672 4.37012 2.85672 5.2002V11.665C2.85672 12.1875 3.09333 12.6758 3.49065 12.9639L3.96387 13.3057C4.60226 13.7744 5.42369 13.8281 6.11119 13.4521L6.25405 13.374C6.37012 13.3105 6.47726 13.2373 6.57994 13.1543L8.7853 11.3477C9.07994 11.1035 9.48619 11.1035 9.78083 11.3477C10.2362 11.7236 10.2228 12.4756 9.74958 12.8271L4.0353 17.0898C3.29869 17.6416 2.85672 18.5547 2.85672 19.5312H17.1424L18.4326 11.7676C18.5264 11.2158 18.571 10.6543 18.571 10.0928V9.375C18.571 4.19922 14.7317 0 9.99958 0H3.74065C3.25405 0 2.85672 0.43457 2.85672 0.966797C2.85672 1.33301 3.04422 1.66504 3.34333 1.83105L4.2853 2.34375ZM5.35672 5.66406C5.35672 5.40506 5.45079 5.15667 5.61824 4.97353C5.78568 4.79039 6.01278 4.6875 6.24958 4.6875C6.48638 4.6875 6.71348 4.79039 6.88093 4.97353C7.04837 5.15667 7.14244 5.40506 7.14244 5.66406C7.14244 5.92306 7.04837 6.17146 6.88093 6.3546C6.71348 6.53774 6.48638 6.64062 6.24958 6.64062C6.01278 6.64062 5.78568 6.53774 5.61824 6.3546C5.45079 6.17146 5.35672 5.92306 5.35672 5.66406ZM1.00851 23.1152C0.82101 23.3203 0.713867 23.6035 0.713867 23.8965C0.713867 24.5068 1.16476 25 1.7228 25H18.2764C18.8344 25 19.2853 24.5068 19.2853 23.8965C19.2853 23.6035 19.1782 23.3203 18.9907 23.1152L17.1424 21.0938H2.85672L1.00851 23.1152Z" fill="#95ABAC"/>
</g>
<defs>
<clipPath id="clip0_145_247">
<rect width="20" height="25" fill="white"/>
</clipPath>
</defs>
</svg>
