<svg width="25" height="25" viewBox="0 0 25 25" fill="none" xmlns="http://www.w3.org/2000/svg">
<g clip-path="url(#clip0_145_259)">
<path d="M16.3628 2.53906C16.8403 1.86523 16.7448 0.883784 16.1458 0.341792C15.5469 -0.2002 14.6745 -0.0878956 14.1927 0.585933L12.5 2.96874L10.8073 0.585933C10.3299 -0.0878956 9.45312 -0.195317 8.85417 0.341792C8.25521 0.878901 8.15972 1.86523 8.63715 2.53906L10.7205 5.46875L0.533854 19.7949C0.186632 20.2832 0 20.8838 0 21.5039V22.6562C0 23.9502 0.93316 25 2.08333 25H12.5H22.9167C24.0668 25 25 23.9502 25 22.6562V21.5039C25 20.8838 24.8134 20.2783 24.4661 19.7949L14.2795 5.46875L16.3628 2.53906ZM12.5 21.875H7.31337L12.5 14.2432L17.6866 21.875H12.5Z" fill="#95ABAC"/>
</g>
<defs>
<clipPath id="clip0_145_259">
<rect width="25" height="25" fill="white"/>
</clipPath>
</defs>
</svg>
