<svg width="155" height="29" viewBox="0 0 155 29" fill="none" xmlns="http://www.w3.org/2000/svg">
<rect x="135" width="28" height="58" transform="rotate(90 135 0)" fill="#6F2232"/>
<rect x="145" width="8" height="8" transform="rotate(90 145 0)" fill="#6F2232"/>
<rect x="155" width="19" height="8" transform="rotate(90 155 0)" fill="#6F2232"/>
<rect x="145" y="10" width="9" height="8" transform="rotate(90 145 10)" fill="#6F2232"/>
<rect x="155" y="21" width="7" height="18" transform="rotate(90 155 21)" fill="#6F2232"/>
<path d="M10.104 23.24C8.792 23.24 7.584 23.032 6.48 22.616C5.392 22.184 4.44 21.584 3.624 20.816C2.808 20.032 2.176 19.112 1.728 18.056C1.28 17 1.056 15.848 1.056 14.6C1.056 13.352 1.28 12.2 1.728 11.144C2.176 10.088 2.808 9.176 3.624 8.408C4.456 7.624 5.424 7.024 6.528 6.608C7.632 6.176 8.84 5.96 10.152 5.96C11.576 5.96 12.856 6.192 13.992 6.656C15.144 7.12 16.112 7.8 16.896 8.696L14.928 10.616C14.272 9.96 13.56 9.48 12.792 9.176C12.04 8.856 11.208 8.696 10.296 8.696C9.416 8.696 8.6 8.84 7.848 9.128C7.096 9.416 6.448 9.824 5.904 10.352C5.36 10.88 4.936 11.504 4.632 12.224C4.344 12.944 4.2 13.736 4.2 14.6C4.2 15.448 4.344 16.232 4.632 16.952C4.936 17.672 5.36 18.304 5.904 18.848C6.448 19.376 7.088 19.784 7.824 20.072C8.56 20.36 9.376 20.504 10.272 20.504C11.104 20.504 11.904 20.376 12.672 20.12C13.456 19.848 14.2 19.4 14.904 18.776L16.68 21.104C15.8 21.808 14.776 22.344 13.608 22.712C12.456 23.064 11.288 23.24 10.104 23.24ZM13.728 20.696V14.408H16.68V21.104L13.728 20.696ZM28.4031 23V20.408L28.2351 19.856V15.32C28.2351 14.44 27.9711 13.76 27.4431 13.28C26.9151 12.784 26.1151 12.536 25.0431 12.536C24.3231 12.536 23.6111 12.648 22.9071 12.872C22.2191 13.096 21.6351 13.408 21.1551 13.808L19.9791 11.624C20.6671 11.096 21.4831 10.704 22.4271 10.448C23.3871 10.176 24.3791 10.04 25.4031 10.04C27.2591 10.04 28.6911 10.488 29.6991 11.384C30.7231 12.264 31.2351 13.632 31.2351 15.488V23H28.4031ZM24.3711 23.168C23.4111 23.168 22.5711 23.008 21.8511 22.688C21.1311 22.352 20.5711 21.896 20.1711 21.32C19.7871 20.728 19.5951 20.064 19.5951 19.328C19.5951 18.608 19.7631 17.96 20.0991 17.384C20.4511 16.808 21.0191 16.352 21.8031 16.016C22.5871 15.68 23.6271 15.512 24.9231 15.512H28.6431V17.504H25.1391C24.1151 17.504 23.4271 17.672 23.0751 18.008C22.7231 18.328 22.5471 18.728 22.5471 19.208C22.5471 19.752 22.7631 20.184 23.1951 20.504C23.6271 20.824 24.2271 20.984 24.9951 20.984C25.7311 20.984 26.3871 20.816 26.9631 20.48C27.5551 20.144 27.9791 19.648 28.2351 18.992L28.7391 20.792C28.4511 21.544 27.9311 22.128 27.1791 22.544C26.4431 22.96 25.5071 23.168 24.3711 23.168ZM51.2612 10.04C52.2852 10.04 53.1892 10.24 53.9732 10.64C54.7732 11.04 55.3972 11.656 55.8452 12.488C56.2932 13.304 56.5172 14.36 56.5172 15.656V23H53.5172V16.04C53.5172 14.904 53.2692 14.056 52.7732 13.496C52.2772 12.936 51.5652 12.656 50.6372 12.656C49.9812 12.656 49.3972 12.8 48.8852 13.088C48.3892 13.376 47.9972 13.8 47.7092 14.36C47.4372 14.92 47.3012 15.632 47.3012 16.496V23H44.3012V16.04C44.3012 14.904 44.0532 14.056 43.5572 13.496C43.0612 12.936 42.3492 12.656 41.4212 12.656C40.7652 12.656 40.1812 12.8 39.6692 13.088C39.1732 13.376 38.7812 13.8 38.4932 14.36C38.2212 14.92 38.0852 15.632 38.0852 16.496V23H35.0852V10.184H37.9412V13.592L37.4372 12.584C37.8692 11.752 38.4932 11.12 39.3092 10.688C40.1412 10.256 41.0852 10.04 42.1412 10.04C43.3412 10.04 44.3812 10.336 45.2612 10.928C46.1572 11.52 46.7492 12.416 47.0372 13.616L45.8612 13.208C46.2772 12.248 46.9652 11.48 47.9252 10.904C48.8852 10.328 49.9972 10.04 51.2612 10.04ZM66.3983 23.168C64.9743 23.168 63.7263 22.888 62.6543 22.328C61.5983 21.752 60.7743 20.968 60.1823 19.976C59.6063 18.984 59.3183 17.856 59.3183 16.592C59.3183 15.312 59.5983 14.184 60.1583 13.208C60.7343 12.216 61.5183 11.44 62.5103 10.88C63.5183 10.32 64.6623 10.04 65.9423 10.04C67.1903 10.04 68.3023 10.312 69.2783 10.856C70.2543 11.4 71.0223 12.168 71.5823 13.16C72.1423 14.152 72.4223 15.32 72.4223 16.664C72.4223 16.792 72.4143 16.936 72.3983 17.096C72.3983 17.256 72.3903 17.408 72.3743 17.552H61.6943V15.56H70.7903L69.6143 16.184C69.6303 15.448 69.4783 14.8 69.1583 14.24C68.8383 13.68 68.3983 13.24 67.8383 12.92C67.2943 12.6 66.6623 12.44 65.9423 12.44C65.2063 12.44 64.5583 12.6 63.9983 12.92C63.4543 13.24 63.0223 13.688 62.7023 14.264C62.3983 14.824 62.2463 15.488 62.2463 16.256V16.736C62.2463 17.504 62.4223 18.184 62.7743 18.776C63.1263 19.368 63.6223 19.824 64.2623 20.144C64.9023 20.464 65.6383 20.624 66.4703 20.624C67.1903 20.624 67.8383 20.512 68.4143 20.288C68.9903 20.064 69.5023 19.712 69.9503 19.232L71.5583 21.08C70.9823 21.752 70.2543 22.272 69.3743 22.64C68.5103 22.992 67.5183 23.168 66.3983 23.168ZM90.0728 23.24C88.7608 23.24 87.5528 23.032 86.4488 22.616C85.3608 22.184 84.4088 21.584 83.5928 20.816C82.7768 20.032 82.1448 19.112 81.6968 18.056C81.2488 17 81.0248 15.848 81.0248 14.6C81.0248 13.352 81.2488 12.2 81.6968 11.144C82.1448 10.088 82.7768 9.176 83.5928 8.408C84.4248 7.624 85.3928 7.024 86.4968 6.608C87.6008 6.176 88.8088 5.96 90.1208 5.96C91.5448 5.96 92.8248 6.192 93.9608 6.656C95.1128 7.12 96.0808 7.8 96.8648 8.696L94.8968 10.616C94.2408 9.96 93.5288 9.48 92.7608 9.176C92.0088 8.856 91.1768 8.696 90.2648 8.696C89.3848 8.696 88.5688 8.84 87.8168 9.128C87.0648 9.416 86.4168 9.824 85.8728 10.352C85.3288 10.88 84.9048 11.504 84.6008 12.224C84.3128 12.944 84.1688 13.736 84.1688 14.6C84.1688 15.448 84.3128 16.232 84.6008 16.952C84.9048 17.672 85.3288 18.304 85.8728 18.848C86.4168 19.376 87.0568 19.784 87.7928 20.072C88.5288 20.36 89.3448 20.504 90.2408 20.504C91.0728 20.504 91.8728 20.376 92.6407 20.12C93.4248 19.848 94.1688 19.4 94.8728 18.776L96.6488 21.104C95.7688 21.808 94.7448 22.344 93.5768 22.712C92.4248 23.064 91.2568 23.24 90.0728 23.24ZM93.6968 20.696V14.408H96.6488V21.104L93.6968 20.696ZM100.476 23V10.184H103.332V13.712L102.996 12.68C103.38 11.816 103.98 11.16 104.796 10.712C105.628 10.264 106.66 10.04 107.892 10.04V12.896C107.764 12.864 107.644 12.848 107.532 12.848C107.42 12.832 107.308 12.824 107.196 12.824C106.06 12.824 105.156 13.16 104.484 13.832C103.812 14.488 103.476 15.472 103.476 16.784V23H100.476ZM110.437 23V10.184H113.437V23H110.437ZM111.949 8.072C111.389 8.072 110.925 7.896 110.557 7.544C110.205 7.192 110.029 6.768 110.029 6.272C110.029 5.76 110.205 5.336 110.557 5C110.925 4.648 111.389 4.472 111.949 4.472C112.509 4.472 112.965 4.64 113.317 4.976C113.685 5.296 113.869 5.704 113.869 6.2C113.869 6.728 113.693 7.176 113.341 7.544C112.989 7.896 112.525 8.072 111.949 8.072ZM122.798 23.168C121.566 23.168 120.454 22.896 119.462 22.352C118.486 21.792 117.718 21.024 117.158 20.048C116.598 19.072 116.318 17.92 116.318 16.592C116.318 15.264 116.598 14.112 117.158 13.136C117.718 12.16 118.486 11.4 119.462 10.856C120.454 10.312 121.566 10.04 122.798 10.04C123.87 10.04 124.83 10.28 125.678 10.76C126.526 11.224 127.198 11.936 127.694 12.896C128.19 13.856 128.438 15.088 128.438 16.592C128.438 18.08 128.198 19.312 127.718 20.288C127.238 21.248 126.574 21.968 125.726 22.448C124.878 22.928 123.902 23.168 122.798 23.168ZM123.158 20.6C123.878 20.6 124.518 20.44 125.078 20.12C125.654 19.8 126.11 19.336 126.446 18.728C126.798 18.12 126.974 17.408 126.974 16.592C126.974 15.76 126.798 15.048 126.446 14.456C126.11 13.848 125.654 13.384 125.078 13.064C124.518 12.744 123.878 12.584 123.158 12.584C122.438 12.584 121.79 12.744 121.214 13.064C120.654 13.384 120.198 13.848 119.846 14.456C119.51 15.048 119.342 15.76 119.342 16.592C119.342 17.408 119.51 18.12 119.846 18.728C120.198 19.336 120.654 19.8 121.214 20.12C121.79 20.44 122.438 20.6 123.158 20.6ZM127.046 23V19.976L127.166 16.568L126.926 13.16V5.192H129.902V23H127.046Z" fill="#D9D9D9"/>
</svg>
